<svg id="Ebene_1" data-name="Ebene 1" xmlns="http://www.w3.org/2000/svg" viewBox="0 0 48.18 56.21"><defs><style>.cls-1{fill:#007ec3;}.cls-2{fill:#00b0e9;}.cls-3{fill:#0069b4;}.cls-4{fill:#004899;}.cls-5{fill:#033572;}</style></defs><rect class="cls-1" x="33.3" y="17.24" width="5.68" height="5.68" transform="translate(-3.61 31.43) rotate(-44.99)"/><rect class="cls-2" x="29.28" y="21.25" width="5.68" height="5.68" transform="translate(-7.63 29.77) rotate(-45)"/><rect class="cls-2" x="25.27" y="17.24" width="5.68" height="5.68" transform="translate(-5.96 25.75) rotate(-44.99)"/><rect class="cls-3" x="29.28" y="13.22" width="5.68" height="5.68" transform="translate(-1.95 27.42) rotate(-45)"/><rect class="cls-3" x="17.24" y="33.3" width="5.68" height="5.68" transform="translate(-19.68 24.79) rotate(-45.02)"/><rect class="cls-4" x="13.22" y="37.31" width="5.68" height="5.68" transform="translate(-23.69 23.12) rotate(-45)"/><rect class="cls-5" x="9.21" y="33.3" width="5.68" height="5.68" transform="translate(-22.03 19.11) rotate(-45.01)"/><rect class="cls-5" x="9.21" y="41.33" width="5.68" height="5.68" transform="translate(-27.7 21.45) rotate(-44.99)"/><rect class="cls-5" x="1.18" y="41.33" width="5.68" height="5.68" transform="translate(-30.06 15.78) rotate(-45)"/><rect class="cls-4" x="13.22" y="29.28" width="5.68" height="5.68" transform="translate(-18.01 20.76) rotate(-45)"/><rect class="cls-1" x="29.28" y="37.31" width="5.68" height="5.68" transform="translate(-18.98 34.46) rotate(-44.99)"/><rect class="cls-4" x="25.27" y="33.3" width="5.68" height="5.68" transform="translate(-17.32 30.46) rotate(-45)"/><rect class="cls-4" x="29.28" y="29.28" width="5.68" height="5.68" transform="translate(-13.31 32.14) rotate(-45.02)"/><rect class="cls-3" x="33.3" y="33.3" width="5.68" height="5.68" transform="translate(-14.97 36.14) rotate(-45)"/><rect class="cls-5" x="33.3" y="41.33" width="5.68" height="5.68" transform="translate(-20.65 38.49) rotate(-45)"/><rect class="cls-5" x="41.33" y="41.33" width="5.68" height="5.68" transform="translate(-18.29 44.17) rotate(-45)"/><rect class="cls-2" x="21.25" y="29.28" width="5.68" height="5.68" transform="translate(-15.66 26.46) rotate(-45.02)"/><rect class="cls-3" x="17.24" y="25.27" width="5.68" height="5.68" transform="translate(-13.99 22.42) rotate(-44.99)"/><rect class="cls-4" x="21.25" y="21.25" width="5.68" height="5.68" transform="translate(-9.98 24.1) rotate(-45.01)"/><rect class="cls-3" x="25.27" y="25.27" width="5.68" height="5.68" transform="translate(-11.64 28.11) rotate(-45)"/><rect class="cls-4" x="13.22" y="21.25" width="5.68" height="5.68" transform="translate(-12.33 18.42) rotate(-45.01)"/><rect class="cls-3" x="9.21" y="17.24" width="5.68" height="5.68" transform="translate(-10.67 14.4) rotate(-45)"/><rect class="cls-1" x="13.22" y="13.22" width="5.68" height="5.68" transform="translate(-6.65 16.06) rotate(-44.99)"/><rect class="cls-3" x="17.24" y="17.24" width="5.68" height="5.68" transform="translate(-8.32 20.07) rotate(-44.99)"/><rect class="cls-2" x="41.33" y="9.21" width="5.68" height="5.68" transform="translate(4.42 34.76) rotate(-45)"/><rect class="cls-4" x="33.3" y="9.21" width="5.68" height="5.68" transform="translate(2.07 29.09) rotate(-45.01)"/><rect class="cls-4" x="9.21" y="9.21" width="5.68" height="5.68" transform="translate(-4.99 12.04) rotate(-44.99)"/><rect class="cls-1" x="1.18" y="9.21" width="5.68" height="5.68" transform="translate(-7.34 6.37) rotate(-45)"/><rect class="cls-1" x="1.18" y="1.18" width="5.68" height="5.68" transform="translate(-1.66 4.01) rotate(-44.99)"/><rect class="cls-4" x="41.33" y="49.36" width="5.68" height="5.68" transform="translate(-23.98 46.54) rotate(-45.01)"/></svg>